HIERARCHY
ROOT SimulationBone
{
	OFFSET 0.000000 0.000000 0.000000
	CHANNELS 6 Xposition Yposition Zposition Zrotation Yrotation Xrotation 
	JOINT Hips
	{
		OFFSET 0.000000 0.000000 0.000000
		CHANNELS 6 Xposition Yposition Zposition Zrotation Yrotation Xrotation 
		JOINT LeftUpLeg
		{
			OFFSET 0.103462 1.857831 10.548502
			CHANNELS 3 Zrotation Yrotation Xrotation
			JOINT LeftLeg
			{
				OFFSET 43.500008 -0.000027 -0.000004
				CHANNELS 3 Zrotation Yrotation Xrotation
				JOINT LeftFoot
				{
					OFFSET 42.372200 0.000011 -0.000002
					CHANNELS 3 Zrotation Yrotation Xrotation
					JOINT LeftToe
					{
						OFFSET 17.299999 -0.000001 -0.000002
						CHANNELS 3 Zrotation Yrotation Xrotation
						End Site
						{
							OFFSET 0.000000 0.000000 0.000000
						}
					}
				}
			}
		}
		JOINT RightUpLeg
		{
			OFFSET 0.103458 1.857828 -10.548501
			CHANNELS 3 Zrotation Yrotation Xrotation
			JOINT RightLeg
			{
				OFFSET 43.500038 -0.000031 0.000011
				CHANNELS 3 Zrotation Yrotation Xrotation
				JOINT RightFoot
				{
					OFFSET 42.372257 -0.000004 0.000010
					CHANNELS 3 Zrotation Yrotation Xrotation
					JOINT RightToe
					{
						OFFSET 17.299994 -0.000005 0.000004
						CHANNELS 3 Zrotation Yrotation Xrotation
						End Site
						{
							OFFSET 0.000000 0.000000 0.000000
						}
					}
				}
			}
		}
		JOINT Spine
		{
			OFFSET 6.901966 -2.603733 0.000000
			CHANNELS 3 Zrotation Yrotation Xrotation
			JOINT Spine1
			{
				OFFSET 12.588101 0.000002 0.000000
				CHANNELS 3 Zrotation Yrotation Xrotation
				JOINT Spine2
				{
					OFFSET 12.343201 0.000004 -0.000002
					CHANNELS 3 Zrotation Yrotation Xrotation
					JOINT Neck
					{
						OFFSET 25.832895 -0.000004 0.000002
						CHANNELS 3 Zrotation Yrotation Xrotation
						JOINT Head
						{
							OFFSET 11.766604 0.000011 0.000001
							CHANNELS 3 Zrotation Yrotation Xrotation
							End Site
							{
								OFFSET 0.000000 0.000000 0.000000
							}
						}
					}
					JOINT LeftShoulder
					{
						OFFSET 19.745903 -1.480368 6.000108
						CHANNELS 3 Zrotation Yrotation Xrotation
						JOINT LeftArm
						{
							OFFSET 11.284126 -0.000007 -0.000022
							CHANNELS 3 Zrotation Yrotation Xrotation
							JOINT LeftForeArm
							{
								OFFSET 33.000053 0.000001 0.000028
								CHANNELS 3 Zrotation Yrotation Xrotation
								JOINT LeftHand
								{
									OFFSET 25.200005 0.000019 0.000013
									CHANNELS 3 Zrotation Yrotation Xrotation
									End Site
									{
										OFFSET 0.000000 0.000000 0.000000
									}
								}
							}
						}
					}
					JOINT RightShoulder
					{
						OFFSET 19.746094 -1.480373 -6.000072
						CHANNELS 3 Zrotation Yrotation Xrotation
						JOINT RightArm
						{
							OFFSET 11.284138 -0.000017 -0.000010
							CHANNELS 3 Zrotation Yrotation Xrotation
							JOINT RightForeArm
							{
								OFFSET 33.000092 0.000013 0.000009
								CHANNELS 3 Zrotation Yrotation Xrotation
								JOINT RightHand
								{
									OFFSET 25.199776 0.000139 0.000415
									CHANNELS 3 Zrotation Yrotation Xrotation
									End Site
									{
										OFFSET 0.000000 0.000000 0.000000
									}
								}
							}
						}
					}
				}
			}
		}
	}
}
MOTION
Frames: 6
Frame Time: 0.016667
251.336628 0.000000 -110.266096 180.000000 -69.503861 180.000000 -2.107678 83.734406 -2.856734 90.698904 -3.939973 -179.252764 -170.029457 -18.292652 168.026961 -19.871672 -2.297224 -5.294102 79.692505 -2.995630 -27.343418 21.454549 0.003080 -0.000002 147.207416 22.697667 -172.474322 -48.850209 -0.298055 8.180793 79.960955 -3.955086 7.571229 21.454560 -0.003108 -0.000017 8.634969 0.984113 0.063428 7.259725 1.962251 0.188356 6.941441 1.963491 0.176508 8.129766 -0.901534 -12.933830 -4.889265 18.648926 -17.978328 -172.265699 -77.951864 -9.406071 -15.207299 58.678459 11.498971 -54.643082 -16.515777 2.007606 6.272635 -2.957956 27.794072 -161.910489 68.060857 20.032247 -8.182898 -50.082301 -12.771137 -23.907744 14.061387 -1.091379 13.844167 6.507793 2.344215 
249.904643 0.000000 -109.849830 180.000000 -68.245397 180.000000 -2.163754 83.456413 -2.519436 90.580352 -2.970048 -179.234777 -170.232903 -19.777492 166.690985 -21.959111 -0.890245 -5.092654 77.969559 -3.998550 -28.812752 21.454551 0.003090 -0.000002 147.088164 21.337716 -171.932336 -50.169815 0.125627 7.194861 80.848183 -2.788219 9.817973 21.454560 -0.003107 -0.000016 8.658742 1.188445 0.115263 7.309347 2.367189 0.305269 6.990957 2.369121 0.290975 8.162558 -0.743934 -12.586632 -4.660399 18.142671 -17.441644 -171.906858 -77.972321 -9.771776 -13.476007 58.704811 11.545613 -56.050249 -16.873197 2.081484 5.706248 -4.076846 33.162937 -161.378887 67.714165 20.586718 -7.455986 -49.809239 -14.398266 -24.408810 14.003062 -1.094976 12.989104 6.526598 -1.199217 
248.446064 0.000000 -109.413720 180.000000 -66.966660 180.000000 -2.231519 83.173624 -2.161489 90.700425 -1.623615 -179.025866 -171.017774 -21.602281 165.908759 -25.304188 0.988300 -4.950309 75.991873 -4.941645 -29.763471 21.454551 0.003092 -0.000001 147.371037 19.815304 -170.897855 -51.488002 0.954955 6.327985 82.047629 -2.282863 9.737509 21.454558 -0.003107 -0.000016 8.743094 1.495152 0.125559 7.480418 2.978998 0.347457 7.161855 2.981173 0.329447 8.691163 -0.635047 -12.154756 -4.837497 17.601012 -16.898070 -171.173156 -77.801818 -10.518768 -11.490587 58.790230 11.894302 -57.175696 -17.313122 2.151189 4.691851 -4.956397 37.532274 -161.317346 67.296663 20.655893 -6.898882 -49.208558 -16.153486 -24.898734 13.997813 -1.102091 11.765264 6.256748 -3.697500 
246.962859 0.000000 -108.955447 180.000000 -65.679747 180.000000 -2.292232 83.006233 -1.817618 90.949446 -0.351419 -178.654638 -172.476142 -23.168703 166.239332 -29.612230 2.868256 -5.808640 73.311916 -5.045548 -29.610949 21.454551 0.003091 0.000000 148.033448 18.448300 -169.373023 -52.484805 1.792874 5.451776 83.346701 -2.058286 8.353612 21.454558 -0.003108 -0.000017 8.857517 1.792661 0.097293 7.710845 3.574776 0.313823 7.392079 3.576740 0.292192 9.546394 -0.465075 -11.693047 -5.139846 16.996499 -16.328300 -170.740344 -77.538994 -10.959211 -9.367517 58.855670 12.558268 -57.804211 -17.728729 2.203063 3.385621 -5.881117 40.464300 -161.338698 66.899808 20.638973 -6.716144 -48.570318 -17.741950 -25.197684 13.977168 -1.105605 10.487469 5.811370 -5.288361 
245.457811 0.000000 -108.472789 180.000000 -64.394808 180.000000 -2.329119 83.075730 -1.518733 91.180312 0.397431 -178.193743 -174.618830 -23.854906 167.913341 -34.481229 4.162212 -8.302753 69.539235 -3.594855 -27.751734 21.454550 0.003096 -0.000003 149.013471 17.478011 -167.643338 -52.896555 2.289608 4.509334 84.582744 -1.750676 7.014382 21.454558 -0.003109 -0.000017 8.969454 1.965978 0.046218 7.934598 3.924064 0.227147 7.615688 3.925500 0.203407 10.486354 -0.145080 -11.253831 -5.247150 16.331137 -15.720630 -171.095943 -77.311244 -10.595975 -7.289337 58.819523 13.553146 -57.770814 -18.025225 2.222273 2.028682 -7.110428 41.581512 -161.033838 66.604003 20.958951 -6.994192 -48.214084 -18.950875 -25.227998 13.889162 -1.100410 9.495624 5.346215 -6.309796 
243.934278 0.000000 -107.964420 180.000000 -63.125966 180.000000 -2.354290 83.363022 -1.267947 91.345912 0.705881 -177.791566 -177.212837 -23.810192 169.898756 -39.465351 4.776878 -11.470089 65.038474 -0.703460 -23.455057 21.454551 0.003099 -0.000005 150.189466 16.701704 -165.938531 -52.750878 2.446030 3.560216 85.654690 -1.375477 5.819794 21.454560 -0.003110 -0.000018 9.065200 2.029791 0.008071 8.125447 4.053894 0.158658 7.806478 4.054913 0.134147 11.490497 0.212573 -10.805532 -5.181733 15.653477 -15.073905 -171.442269 -77.211506 -10.242399 -5.452008 58.850670 14.718167 -57.228733 -18.228493 2.216062 1.146087 -8.209510 40.877704 -160.617484 66.419687 21.393280 -7.433141 -48.126144 -19.795907 -25.192114 13.788542 -1.093464 8.951010 4.769711 -6.941111 
